<svg width="164" height="79" viewBox="0 0 164 79" fill="none" xmlns="http://www.w3.org/2000/svg">
<path d="M19.1418 58.2V76.673C19.1418 77.8965 18.4767 78.5407 17.2148 78.5407C15.9528 78.5407 15.3026 77.8965 15.3026 76.673V63.4573L11.0477 69.3677C10.5993 69.9588 10.2014 70.2543 9.6373 70.2543C9.07314 70.2543 8.65745 69.9883 8.22394 69.3943L3.96905 63.4839V76.6819C3.96905 77.9053 3.30394 78.5496 2.04202 78.5496C0.780103 78.5496 0.132812 77.9053 0.132812 76.6819V58.2C0.132812 56.941 1.06218 56.5303 2.07468 56.5303C2.36277 56.5229 2.64835 56.5852 2.90693 56.7118C3.16551 56.8384 3.38936 57.0256 3.5593 57.2573L9.64323 65.3782L15.7094 57.272C15.8673 57.0273 16.0884 56.8293 16.3496 56.6988C16.6108 56.5683 16.9024 56.5101 17.194 56.5303C18.2777 56.5303 19.1418 57.1479 19.1418 58.2Z" fill="#5C5869"/>
<path d="M38.9612 64.4V76.4897C38.9612 77.7132 38.2812 78.3752 37.0342 78.3752C35.7871 78.3752 35.1249 77.7132 35.1249 76.4897V72.2904H27.2892V76.4897C27.2892 77.7132 26.6241 78.3752 25.377 78.3752C24.1299 78.3752 23.4678 77.7132 23.4678 76.4897V64.4C23.4678 59.5712 26.5261 56.4209 31.1878 56.4209C35.8494 56.4209 38.9612 59.5712 38.9612 64.4ZM31.1699 60.2331C28.8747 60.2331 27.2803 61.8703 27.2803 64.202V68.487H35.1249V64.202C35.1249 61.8762 33.477 60.2331 31.1699 60.2331Z" fill="#5C5869"/>
<path d="M49.793 56.71C54.0301 56.71 57.3051 59.1421 57.3051 64.2517V64.7659C57.3051 69.7277 54.039 72.2071 49.793 72.2071H47.1029V76.4242C47.1029 77.7304 46.42 78.4928 45.1759 78.4928C43.9317 78.4928 43.2637 77.8309 43.2637 76.6074V58.6249C43.2637 57.366 43.9288 56.7218 45.1759 56.7218L49.793 56.71ZM47.1029 60.5311V68.5101H49.5584C52.1179 68.5101 53.4659 67.6236 53.4659 64.689V64.2398C53.4659 61.5802 52.1179 60.537 49.5762 60.537L47.1029 60.5311Z" fill="#5C5869"/>
<path d="M66.9581 56.71C71.1952 56.71 74.4672 59.1421 74.4672 64.2517V64.7659C74.4672 69.7277 71.2011 72.2071 66.9581 72.2071H64.265V76.4242C64.265 77.7304 63.585 78.4928 62.338 78.4928C61.0909 78.4928 60.4258 77.8309 60.4258 76.6074V58.6249C60.4258 57.366 61.0909 56.7218 62.338 56.7218L66.9581 56.71ZM64.265 60.5311V68.5101H66.7087C69.2681 68.5101 70.6132 67.6236 70.6132 64.689V64.2398C70.6132 61.5802 69.2681 60.537 66.7235 60.537L64.265 60.5311Z" fill="#5C5869"/>
<path d="M93.2446 58.3981V76.5904C93.2446 77.8641 92.5943 78.5408 91.3324 78.5408C90.0705 78.5408 89.3875 77.8818 89.3875 76.5904V64.5361L80.9312 77.7843C80.5986 78.2808 80.0404 78.5438 79.2506 78.5438C78.3391 78.5438 77.5908 78.0148 77.5908 76.9421V58.4484C77.5908 57.1894 78.2203 56.5127 79.4674 56.5127C80.7649 56.5127 81.43 57.1894 81.43 58.4484V70.3047L89.7438 57.3017C90.0942 56.755 90.6346 56.5245 91.3739 56.5245C91.6208 56.5237 91.8654 56.5717 92.0935 56.6657C92.3216 56.7598 92.5287 56.8979 92.7027 57.0722C92.8767 57.2465 93.0142 57.4535 93.1072 57.6811C93.2002 57.9087 93.2469 58.1524 93.2446 58.3981Z" fill="#5C5869"/>
<path d="M113.064 64.4V76.4897C113.064 77.7132 112.384 78.3752 111.137 78.3752C109.89 78.3752 109.228 77.7132 109.228 76.4897V72.2904H101.383V76.4897C101.383 77.7132 100.718 78.3752 99.4707 78.3752C98.2237 78.3752 97.5615 77.7132 97.5615 76.4897V64.4C97.5615 59.5712 100.62 56.4209 105.282 56.4209C109.943 56.4209 113.064 59.5712 113.064 64.4ZM105.273 60.2331C102.977 60.2331 101.383 61.8703 101.383 64.202V68.487H109.239V64.202C109.239 61.8762 107.583 60.2331 105.273 60.2331Z" fill="#5C5869"/>
<path d="M129.546 58.6249C129.546 59.8809 128.899 60.5429 127.652 60.5429H123.789V76.569C123.789 77.8427 123.142 78.5047 121.88 78.5047C120.618 78.5047 119.953 77.8575 119.953 76.634V60.5311H116.069C114.822 60.5311 114.192 59.8691 114.192 58.5777C114.192 57.3542 114.822 56.71 116.069 56.71H127.649C128.899 56.71 129.546 57.3542 129.546 58.6249Z" fill="#5C5869"/>
<path d="M130.577 63.9863C130.577 59.9199 133.716 56.4121 138.297 56.4121C142.879 56.4121 146.074 59.9347 146.074 63.9863V71.132C146.074 75.2191 142.834 78.6737 138.297 78.6737C133.76 78.6737 130.577 75.1836 130.577 71.132V63.9863ZM134.413 70.9517C134.413 73.4814 136.21 74.8526 138.303 74.8526C140.447 74.8526 142.225 73.4814 142.225 70.9517V64.137C142.225 61.6221 140.414 60.2332 138.303 60.2332C136.192 60.2332 134.413 61.6221 134.413 64.137V70.9517Z" fill="#5C5869"/>
<path d="M156.379 56.71C160.616 56.71 163.891 59.1421 163.891 64.2517V64.7659C163.891 69.7277 160.625 72.2071 156.379 72.2071H153.689V76.4242C153.689 77.7304 153.006 78.4928 151.759 78.4928C150.512 78.4928 149.85 77.8309 149.85 76.6074V58.6249C149.85 57.366 150.515 56.7218 151.759 56.7218L156.379 56.71ZM153.689 60.5311V68.5101H156.13C158.689 68.5101 160.034 67.6236 160.034 64.689V64.2398C160.034 61.5802 158.689 60.537 156.147 60.537L153.689 60.5311Z" fill="#5C5869"/>
<path d="M73.4436 7.11215C73.7491 4.07151 71.5202 1.3601 68.4651 1.05603C65.4101 0.751969 62.6858 2.9704 62.3803 6.01104C62.0748 9.05168 64.3038 11.7631 67.3588 12.0672C70.4139 12.3712 73.1381 10.1528 73.4436 7.11215Z" fill="url(#paint0_linear_1955_17859)"/>
<path d="M60.7963 21.2979C60.194 22.679 59.8837 24.1688 59.8848 25.6745V45.4981C62.8192 45.4981 65.6335 44.3381 67.7088 42.2732C69.784 40.2083 70.9503 37.4076 70.9511 34.487V30.4442C66.7829 28.3865 63.2683 25.2209 60.7963 21.2979Z" fill="url(#paint1_linear_1955_17859)"/>
<path d="M96.4037 12.4623C99.4588 12.4623 101.935 9.99737 101.935 6.95673C101.935 3.9161 99.4588 1.45117 96.4037 1.45117C93.3487 1.45117 90.8721 3.9161 90.8721 6.95673C90.8721 9.99737 93.3487 12.4623 96.4037 12.4623Z" fill="url(#paint2_linear_1955_17859)"/>
<path d="M93.0723 14.6875V34.4874C93.0731 37.408 94.2393 40.2087 96.3146 42.2736C98.3898 44.3385 101.204 45.4985 104.139 45.4985V25.7223C104.139 22.7992 102.973 19.9956 100.899 17.9268C98.8239 15.858 96.0091 14.693 93.0723 14.6875Z" fill="url(#paint3_linear_1955_17859)"/>
<path d="M70.1974 14.6875C68.4649 14.8056 66.7846 15.3278 65.2924 16.2119C63.8001 17.0959 62.5378 18.317 61.6074 19.7764C64.3869 24.589 68.7907 28.265 74.0362 30.1511C79.2817 32.0373 85.0293 32.0115 90.2575 30.0782C85.8443 29.5097 81.6618 27.7853 78.1375 25.0812C74.6131 22.3772 71.8731 18.7905 70.1974 14.6875Z" fill="url(#paint4_linear_1955_17859)"/>
<path d="M82.0143 20.9078C78.7933 20.9102 75.6883 19.7113 73.3115 17.5477C75.2556 20.716 77.926 23.3808 81.1041 25.324C84.2823 27.2672 87.8777 28.4335 91.596 28.7273V16.6611C90.3878 17.9986 88.9102 19.068 87.2594 19.7996C85.6085 20.5313 83.8214 20.9089 82.0143 20.9078Z" fill="url(#paint5_linear_1955_17859)"/>
<path d="M73.4436 7.11215C73.7491 4.07151 71.5202 1.3601 68.4651 1.05603C65.4101 0.751969 62.6858 2.9704 62.3803 6.01104C62.0748 9.05168 64.3038 11.7631 67.3588 12.0672C70.4139 12.3712 73.1381 10.1528 73.4436 7.11215Z" fill="url(#paint6_linear_1955_17859)"/>
<path d="M60.7963 21.2979C60.194 22.679 59.8837 24.1688 59.8848 25.6745V45.4981C62.8192 45.4981 65.6335 44.3381 67.7088 42.2732C69.784 40.2083 70.9503 37.4076 70.9511 34.487V30.4442C66.7829 28.3865 63.2683 25.2209 60.7963 21.2979Z" fill="url(#paint7_linear_1955_17859)"/>
<path d="M96.4037 12.4623C99.4588 12.4623 101.935 9.99737 101.935 6.95673C101.935 3.9161 99.4588 1.45117 96.4037 1.45117C93.3487 1.45117 90.8721 3.9161 90.8721 6.95673C90.8721 9.99737 93.3487 12.4623 96.4037 12.4623Z" fill="url(#paint8_linear_1955_17859)"/>
<path d="M93.0723 14.6875V34.4874C93.0731 37.408 94.2393 40.2087 96.3146 42.2736C98.3898 44.3385 101.204 45.4985 104.139 45.4985V25.7223C104.139 22.7992 102.973 19.9956 100.899 17.9268C98.8239 15.858 96.0091 14.693 93.0723 14.6875Z" fill="url(#paint9_linear_1955_17859)"/>
<path d="M70.1974 14.6875C68.4649 14.8056 66.7846 15.3278 65.2924 16.2119C63.8001 17.0959 62.5378 18.317 61.6074 19.7764C64.3869 24.589 68.7907 28.265 74.0362 30.1511C79.2817 32.0373 85.0293 32.0115 90.2575 30.0782C85.8443 29.5097 81.6618 27.7853 78.1375 25.0812C74.6131 22.3772 71.8731 18.7905 70.1974 14.6875Z" fill="url(#paint10_linear_1955_17859)"/>
<path d="M82.0143 20.9078C78.7933 20.9102 75.6883 19.7113 73.3115 17.5477C75.2556 20.716 77.926 23.3808 81.1041 25.324C84.2823 27.2672 87.8777 28.4335 91.596 28.7273V16.6611C90.3878 17.9986 88.9102 19.068 87.2594 19.7996C85.6085 20.5313 83.8214 20.9089 82.0143 20.9078Z" fill="url(#paint11_linear_1955_17859)"/>
<defs>
<linearGradient id="paint0_linear_1955_17859" x1="61.2416" y1="-0.0674269" x2="105.37" y2="44.2621" gradientUnits="userSpaceOnUse">
<stop stop-color="#FF9878"/>
<stop offset="0.5" stop-color="#C7329B"/>
<stop offset="1" stop-color="#8A2DB5"/>
</linearGradient>
<linearGradient id="paint1_linear_1955_17859" x1="44.3023" y1="17.0039" x2="88.2551" y2="61.0671" gradientUnits="userSpaceOnUse">
<stop stop-color="#FF9878"/>
<stop offset="0.5" stop-color="#C7329B"/>
<stop offset="1" stop-color="#8A2DB5"/>
</linearGradient>
<linearGradient id="paint2_linear_1955_17859" x1="75.352" y1="-13.9514" x2="119.305" y2="30.1118" gradientUnits="userSpaceOnUse">
<stop stop-color="#FF9878"/>
<stop offset="0.5" stop-color="#C7329B"/>
<stop offset="1" stop-color="#8A2DB5"/>
</linearGradient>
<linearGradient id="paint3_linear_1955_17859" x1="64.8142" y1="-3.45455" x2="108.767" y2="40.6058" gradientUnits="userSpaceOnUse">
<stop stop-color="#FF9878"/>
<stop offset="0.5" stop-color="#C7329B"/>
<stop offset="1" stop-color="#8A2DB5"/>
</linearGradient>
<linearGradient id="paint4_linear_1955_17859" x1="55.8115" y1="5.52339" x2="99.7673" y2="49.5837" gradientUnits="userSpaceOnUse">
<stop stop-color="#FF9878"/>
<stop offset="0.5" stop-color="#C7329B"/>
<stop offset="1" stop-color="#8A2DB5"/>
</linearGradient>
<linearGradient id="paint5_linear_1955_17859" x1="63.0469" y1="-1.69369" x2="107" y2="42.3666" gradientUnits="userSpaceOnUse">
<stop stop-color="#FF9878"/>
<stop offset="0.5" stop-color="#C7329B"/>
<stop offset="1" stop-color="#8A2DB5"/>
</linearGradient>
<linearGradient id="paint6_linear_1955_17859" x1="61.4927" y1="5.12432" x2="102.98" y2="46.8962" gradientUnits="userSpaceOnUse">
<stop stop-color="#FF9878"/>
<stop offset="0.5" stop-color="#C7329B"/>
<stop offset="1" stop-color="#8A2DB5"/>
</linearGradient>
<linearGradient id="paint7_linear_1955_17859" x1="61.2565" y1="5.52588" x2="102.582" y2="47.047" gradientUnits="userSpaceOnUse">
<stop stop-color="#FF9878"/>
<stop offset="0.5" stop-color="#C7329B"/>
<stop offset="1" stop-color="#8A2DB5"/>
</linearGradient>
<linearGradient id="paint8_linear_1955_17859" x1="61.2571" y1="5.52641" x2="102.582" y2="47.0475" gradientUnits="userSpaceOnUse">
<stop stop-color="#FF9878"/>
<stop offset="0.5" stop-color="#C7329B"/>
<stop offset="1" stop-color="#8A2DB5"/>
</linearGradient>
<linearGradient id="paint9_linear_1955_17859" x1="61.257" y1="5.52634" x2="102.582" y2="47.0475" gradientUnits="userSpaceOnUse">
<stop stop-color="#FF9878"/>
<stop offset="0.5" stop-color="#C7329B"/>
<stop offset="1" stop-color="#8A2DB5"/>
</linearGradient>
<linearGradient id="paint10_linear_1955_17859" x1="61.2571" y1="5.52634" x2="102.582" y2="47.0475" gradientUnits="userSpaceOnUse">
<stop stop-color="#FF9878"/>
<stop offset="0.5" stop-color="#C7329B"/>
<stop offset="1" stop-color="#8A2DB5"/>
</linearGradient>
<linearGradient id="paint11_linear_1955_17859" x1="61.2565" y1="5.52589" x2="102.582" y2="47.047" gradientUnits="userSpaceOnUse">
<stop stop-color="#FF9878"/>
<stop offset="0.5" stop-color="#C7329B"/>
<stop offset="1" stop-color="#8A2DB5"/>
</linearGradient>
</defs>
</svg>
