<svg xmlns="http://www.w3.org/2000/svg" width="18" height="18" viewBox="0 0 18 18" fill="none">
<rect width="18" height="18" rx="4" fill="#2BACEF"/>
<path fill-rule="evenodd" clip-rule="evenodd" d="M4.75064 8.97793C7.23558 7.88927 8.89259 7.17155 9.72169 6.82479C12.0889 5.83471 12.5808 5.66272 12.9014 5.65704C12.9719 5.65579 13.1296 5.67337 13.2317 5.7567C13.318 5.82706 13.3417 5.92211 13.353 5.98882C13.3644 6.05553 13.3785 6.20751 13.3673 6.32625C13.239 7.6816 12.6839 10.9707 12.4015 12.4887C12.2821 13.131 12.0468 13.3464 11.819 13.3674C11.324 13.4132 10.9481 13.0385 10.4687 12.7225C9.71844 12.228 9.29461 11.9201 8.56638 11.4376C7.72479 10.8799 8.27036 10.5734 8.74998 10.0724C8.8755 9.94135 11.0565 7.94652 11.0987 7.76556C11.104 7.74293 11.1089 7.65857 11.0591 7.61402C11.0092 7.56947 10.9357 7.5847 10.8826 7.59682C10.8073 7.61399 9.60884 8.41056 7.28708 9.98652C6.94689 10.2214 6.63876 10.3359 6.36268 10.3299C6.05833 10.3233 5.47287 10.1568 5.03765 10.0146C4.50383 9.84008 4.07956 9.74783 4.1165 9.45149C4.13574 9.29714 4.34712 9.13929 4.75064 8.97793Z" fill="white"/>
</svg>