<svg xmlns="http://www.w3.org/2000/svg" width="18" height="18" viewBox="0 0 18 18" fill="none">
<rect width="18" height="18" rx="4" fill="#7F4DA0"/>
<path fill-rule="evenodd" clip-rule="evenodd" d="M11.4992 7.76875C11.4567 7.42359 11.3507 7.15258 11.1623 6.91252C10.9176 6.60341 10.605 6.41831 10.1421 6.3085C9.8405 6.23532 9.71863 6.24372 9.60953 6.34337C9.50791 6.43674 9.48807 6.62391 9.56573 6.74511C9.62034 6.83308 9.68334 6.8646 9.85857 6.89899C10.0919 6.94192 10.2532 6.99764 10.3999 7.08152C10.7112 7.2613 10.8562 7.54262 10.8717 7.99808C10.879 8.21193 10.8975 8.27767 10.9722 8.35352C11.1106 8.49216 11.357 8.4652 11.4615 8.29928C11.4998 8.23675 11.5057 8.20953 11.5097 8.06432C11.5124 7.97442 11.5085 7.84061 11.4992 7.76875Z" fill="white"/>
<path fill-rule="evenodd" clip-rule="evenodd" d="M12.7183 8.15836C12.6568 7.10089 12.2432 6.25011 11.503 5.65151C11.0859 5.31517 10.5818 5.08388 10.0292 4.9714C9.82677 4.93118 9.45407 4.89857 9.39013 4.91722C9.3298 4.93449 9.24446 4.99982 9.20643 5.0589C9.1662 5.12297 9.15714 5.26601 9.19145 5.34875C9.24683 5.48707 9.34986 5.53594 9.63839 5.56118C10.0832 5.6001 10.542 5.75637 10.8886 5.98773C11.2844 6.25114 11.599 6.61144 11.8025 7.03481C11.9784 7.39858 12.0865 7.92281 12.0835 8.39225C12.0825 8.56204 12.1087 8.65792 12.177 8.72802C12.2801 8.83581 12.4303 8.85938 12.5629 8.78779C12.7098 8.71051 12.7442 8.57487 12.7183 8.15836Z" fill="white"/>
<path fill-rule="evenodd" clip-rule="evenodd" d="M14.0677 12.2298C14.0471 12.1694 13.9988 12.0761 13.9643 12.0226C13.7471 11.6946 12.5799 10.7812 11.9972 10.4824C11.6645 10.3115 11.4179 10.2545 11.2352 10.308C11.0387 10.3633 10.9352 10.4548 10.6059 10.864C10.4732 11.0281 10.337 11.1817 10.3008 11.2059C10.2111 11.2681 10.0353 11.3182 9.91115 11.3182C9.62324 11.3164 9.10086 11.1299 8.69916 10.8847C8.38712 10.6948 7.98717 10.3547 7.68027 10.018C7.31822 9.6226 7.07171 9.27382 6.87688 8.88015C6.62518 8.37425 6.5614 8.06517 6.66655 7.83898C6.69241 7.78201 6.7269 7.72159 6.74239 7.70257C6.75792 7.68533 6.91999 7.55236 7.09926 7.40732C7.45098 7.12762 7.50787 7.06374 7.57338 6.87208C7.65613 6.62861 7.63373 6.37998 7.50615 6.12963C7.40787 5.9397 7.151 5.52531 6.96481 5.25769C6.71827 4.90547 6.10452 4.15266 5.9821 4.05076C5.76143 3.87121 5.47872 3.84011 5.16664 3.961C4.83738 4.08877 4.22017 4.58604 3.95639 4.93309C3.71847 5.24733 3.62713 5.47006 3.61332 5.76359C3.60126 6.0053 3.62194 6.10545 3.74952 6.41453C4.74773 8.8387 6.23726 10.7742 8.28368 12.311C9.35256 13.1138 10.4611 13.7251 11.611 14.1429C12.2817 14.3864 12.573 14.3984 12.9161 14.1982C13.0609 14.1118 13.4195 13.7441 13.6195 13.4764C13.9505 13.0309 14.0729 12.8255 14.1074 12.6615C14.1315 12.5492 14.1126 12.3541 14.0677 12.2298Z" fill="white"/>
<path fill-rule="evenodd" clip-rule="evenodd" d="M13.9594 8.40061C13.9373 7.80244 13.8366 7.3118 13.6266 6.76478C13.4193 6.22669 13.2094 5.87556 12.8132 5.40065C12.4385 4.95536 12.1475 4.7011 11.686 4.41809C11.0421 4.02376 10.2584 3.76282 9.38025 3.65307C9.08076 3.61472 9.01301 3.61746 8.92113 3.67876C8.74308 3.7949 8.74545 4.08458 8.92406 4.19897C8.98319 4.23536 9.03565 4.24862 9.27521 4.27998C9.64296 4.32949 9.87943 4.37615 10.16 4.4527C11.2603 4.75348 12.1064 5.36828 12.6721 6.28092C13.1455 7.04162 13.342 7.80237 13.3141 8.77398C13.3044 9.10245 13.3114 9.16025 13.3617 9.23917C13.4578 9.38627 13.7114 9.41536 13.8415 9.2933C13.9224 9.21892 13.9377 9.16306 13.9536 8.88193C13.9613 8.73528 13.9629 8.51878 13.9594 8.40061Z" fill="white"/>
</svg>