<svg xmlns="http://www.w3.org/2000/svg" width="18" height="18" viewBox="0 0 18 18" fill="none">
<rect width="18" height="18" rx="4" fill="#28D146"/>
<path fill-rule="evenodd" clip-rule="evenodd" d="M9.25325 14.302H9.25093C8.3126 14.3017 7.3906 14.0663 6.57171 13.6196L3.59961 14.3992L4.39499 11.494C3.90436 10.6437 3.64619 9.67926 3.64661 8.69113C3.64784 5.59991 6.16293 3.08496 9.25319 3.08496C10.753 3.08561 12.1607 3.66948 13.2192 4.72923C14.2777 5.78893 14.8603 7.19752 14.8597 8.69555C14.8585 11.7861 12.3444 14.3008 9.25325 14.302ZM6.70948 12.605L6.87964 12.706C7.59511 13.1306 8.41524 13.3552 9.25143 13.3555H9.25331C11.8217 13.3555 13.9121 11.2651 13.9132 8.69561C13.9137 7.45046 13.4294 6.27969 12.5496 5.39887C11.6698 4.51805 10.4998 4.03273 9.25515 4.0323C6.68476 4.0323 4.5943 6.12256 4.59328 8.69183C4.59292 9.57234 4.83929 10.4299 5.30575 11.1718L5.41655 11.3481L4.9458 13.0677L6.70948 12.605ZM12.0777 10.0295C12.0427 9.97107 11.9493 9.93601 11.8092 9.86586C11.6691 9.79575 10.9804 9.45689 10.852 9.4101C10.7236 9.36337 10.6302 9.34001 10.5368 9.48021C10.4434 9.62043 10.1749 9.93601 10.0932 10.0295C10.0115 10.123 9.92976 10.1347 9.78973 10.0646C9.64964 9.99445 9.19825 9.84653 8.66316 9.36925C8.24671 8.99778 7.96556 8.53905 7.88384 8.3988C7.80212 8.25855 7.87513 8.18276 7.94526 8.11291C8.00829 8.05012 8.08536 7.94925 8.1554 7.86747C8.22544 7.78569 8.24878 7.72722 8.29548 7.63379C8.34217 7.54026 8.31883 7.45848 8.2838 7.38835C8.24878 7.31823 7.96862 6.62869 7.85189 6.34819C7.73817 6.07502 7.62268 6.11203 7.5367 6.10771C7.45508 6.10361 7.36158 6.10275 7.2682 6.10275C7.17482 6.10275 7.02304 6.13781 6.89464 6.27806C6.76623 6.41831 6.40434 6.75723 6.40434 7.44672C6.40434 8.13626 6.90631 8.8024 6.97635 8.89588C7.04639 8.98942 7.96417 10.4044 9.36947 11.0112C9.70369 11.1555 9.96461 11.2417 10.1681 11.3062C10.5037 11.4129 10.8091 11.3978 11.0504 11.3618C11.3196 11.3216 11.8792 11.0229 11.996 10.6957C12.1127 10.3684 12.1127 10.0879 12.0777 10.0295Z" fill="#FDFDFD"/>
</svg>